<svg width="18" height="30" viewBox="0 0 18 30" fill="none" xmlns="http://www.w3.org/2000/svg">
<path fill-rule="evenodd" clip-rule="evenodd" d="M12.3748 3.38449C12.3748 5.2537 10.8639 6.76897 8.99998 6.76897C7.13616 6.76897 5.62512 5.2537 5.62512 3.38449C5.62512 1.51529 7.13616 0 8.99998 0C10.8639 0 12.3748 1.51529 12.3748 3.38449ZM4.87515 12.7858C4.87515 14.6891 3.12338 21.093 2.482 23.3739C2.35976 23.8086 2.64355 24.2533 3.08895 24.3205C7.57909 24.9977 10.4242 24.9755 14.9139 24.316C15.3584 24.2508 15.6448 23.8111 15.5263 23.3767C14.8921 21.0514 13.1267 14.4312 13.1248 12.7884V12.7858V11.6538C13.423 12.0303 13.7014 12.5904 13.8724 13.1959L13.8889 13.254C13.9932 13.6234 14.0324 13.7622 14.0693 13.9017C14.0915 13.9858 14.1129 14.0701 14.1472 14.2051C14.2436 14.5853 14.4421 15.3679 15.0491 17.6813C15.26 18.4847 16.0803 18.9646 16.8814 18.7531C17.6825 18.5417 18.1611 17.7191 17.9503 16.9157C17.3728 14.7151 17.1674 13.9077 17.0619 13.4928V13.4927C16.9537 13.0674 16.9505 13.0548 16.7587 12.3758C16.5002 11.4609 16.0599 10.519 15.4655 9.77214C14.9047 9.06734 13.9858 8.27319 12.7498 8.27319H8.99998H5.25014C4.01419 8.27319 3.09533 9.06734 2.53443 9.77214C1.94008 10.519 1.49977 11.4609 1.24133 12.3758C1.04949 13.0548 1.04626 13.0674 0.938118 13.4927C0.832598 13.9076 0.627257 14.7149 0.0497812 16.9157C-0.16111 17.7191 0.317445 18.5417 1.11856 18.7531C1.91968 18.9646 2.73999 18.4847 2.95088 17.6813C3.55791 15.3679 3.75642 14.5853 3.85287 14.2051C3.88707 14.0701 3.90844 13.9858 3.93072 13.9017C3.96754 13.7623 4.00684 13.6234 4.11116 13.2541V13.254L4.11123 13.2538L4.12758 13.1959C4.29865 12.5904 4.57696 12.0303 4.87515 11.6538V12.7858ZM4.87515 28.8717V26.0007C5.93223 26.1577 6.91019 26.2569 7.86565 26.2996L7.08546 29.1686C6.93719 29.7138 6.40944 30.0649 5.85079 29.9899C5.29221 29.9149 4.87515 29.4369 4.87515 28.8717ZM10.9146 29.1686L10.133 26.2949C11.0889 26.2484 12.0673 26.1464 13.1248 25.9903V28.8717C13.1248 29.4369 12.7078 29.9149 12.1492 29.9899C11.5906 30.0649 11.0628 29.7138 10.9146 29.1686Z" fill="#333333"/>
</svg>
