<svg width="15" height="15" viewBox="0 0 15 15" fill="none" xmlns="http://www.w3.org/2000/svg">
<path d="M7.49945 1.09375C7.49945 1.09375 7.49945 1.09375 7.4932 1.09375C5.28695 1.09375 2.76195 2.3875 2.1057 5.275C1.37445 8.5 3.34945 11.2312 5.13695 12.95C5.79945 13.5875 6.64945 13.9062 7.49945 13.9062C8.34945 13.9062 9.19945 13.5875 9.8557 12.95C11.6432 11.2312 13.6182 8.50625 12.8869 5.28125C12.2307 2.39375 9.71195 1.09375 7.49945 1.09375Z" fill="#E2E5E7"/>
<path fill-rule="evenodd" clip-rule="evenodd" d="M7.49976 8.4126C6.41245 8.4126 5.53101 7.53116 5.53101 6.44385C5.53101 5.35654 6.41245 4.4751 7.49976 4.4751C8.58707 4.4751 9.46851 5.35654 9.46851 6.44385C9.46851 7.53116 8.58707 8.4126 7.49976 8.4126Z" fill="#989898"/>
</svg>
