<svg width="16" height="22" viewBox="0 0 16 22" fill="none" xmlns="http://www.w3.org/2000/svg">
<path fill-rule="evenodd" clip-rule="evenodd" d="M8.00002 6.37411C9.53672 6.37411 10.7825 5.1205 10.7825 3.57414C10.7825 2.02779 9.53672 0.77417 8.00002 0.77417C6.46325 0.77417 5.21753 2.02779 5.21753 3.57414C5.21753 5.1205 6.46325 6.37411 8.00002 6.37411ZM15.9547 7.76262C16.1484 8.51084 15.7026 9.27538 14.959 9.47019C13.7039 9.79904 12.5629 10.0507 11.4781 10.2235V14.6865L12.163 20.2003C12.2542 20.935 11.7613 21.6142 11.0379 21.7501C10.3146 21.886 9.61122 21.4318 9.43279 20.7135L8.04155 15.1135C8.01365 15.0013 7.99995 14.8874 7.99995 14.774C7.99995 14.8874 7.98632 15.0014 7.95842 15.1136L6.56717 20.7135C6.38868 21.4318 5.68526 21.8861 4.96202 21.7502C4.23871 21.6142 3.74566 20.935 3.83692 20.2003L4.52183 14.6869V10.205C3.44049 10.0314 2.30439 9.78546 1.05679 9.47425C0.311016 9.28819 -0.143644 8.52897 0.0411835 7.77851C0.22608 7.02805 0.980554 6.57046 1.72633 6.75652C4.25701 7.38785 6.14945 7.69801 8.00544 7.7055C9.85719 7.71292 11.7442 7.4192 14.2578 6.76058C15.0014 6.56577 15.7612 7.0144 15.9547 7.76262Z" fill="#007BBD"/>
</svg>
