<svg width="14" height="14" viewBox="0 0 14 14" fill="none" xmlns="http://www.w3.org/2000/svg">
<path d="M1 13H12.7M1.6 7.6V13M12.4 7.6V13M4.3 4.59999V13M9.7 4.59999V13M1 7.6H4M13 7.6H10M3.7 4.59999H10.3M7 4.59999V2.78919M7 2.78919V1.58199C7 1.29759 7 1.15539 7.0876 1.06719C7.3636 0.789391 8.5 1.44579 8.932 1.71219C9.2968 1.93659 9.4 2.38539 9.4 2.78919H7ZM7 13V11.8M6.1 7V7.3M7.9 7V7.3M6.1 9.4V9.7M7.9 9.4V9.7" stroke="#007BBD" stroke-width="1.5" stroke-linecap="round" stroke-linejoin="round"/>
</svg>
